<svg width="24" height="24" viewBox="0 0 24 24" fill="none" xmlns="http://www.w3.org/2000/svg">
<path d="M18.1111 12C17.6691 12 17.2452 11.8244 16.9326 11.5118C16.62 11.1993 16.4444 10.7754 16.4444 10.3333C16.4444 9.89131 16.62 9.46738 16.9326 9.15482C17.2452 8.84226 17.6691 8.66667 18.1111 8.66667C18.5531 8.66667 18.9771 8.84226 19.2896 9.15482C19.6022 9.46738 19.7778 9.89131 19.7778 10.3333C19.7778 10.7754 19.6022 11.1993 19.2896 11.5118C18.9771 11.8244 18.5531 12 18.1111 12ZM14.7778 7.55556C14.3358 7.55556 13.9118 7.37996 13.5993 7.0674C13.2867 6.75484 13.1111 6.33092 13.1111 5.88889C13.1111 5.44686 13.2867 5.02294 13.5993 4.71038C13.9118 4.39782 14.3358 4.22222 14.7778 4.22222C15.2198 4.22222 15.6437 4.39782 15.9563 4.71038C16.2689 5.02294 16.4444 5.44686 16.4444 5.88889C16.4444 6.33092 16.2689 6.75484 15.9563 7.0674C15.6437 7.37996 15.2198 7.55556 14.7778 7.55556ZM9.22222 7.55556C8.7802 7.55556 8.35627 7.37996 8.04371 7.0674C7.73115 6.75484 7.55556 6.33092 7.55556 5.88889C7.55556 5.44686 7.73115 5.02294 8.04371 4.71038C8.35627 4.39782 8.7802 4.22222 9.22222 4.22222C9.66425 4.22222 10.0882 4.39782 10.4007 4.71038C10.7133 5.02294 10.8889 5.44686 10.8889 5.88889C10.8889 6.33092 10.7133 6.75484 10.4007 7.0674C10.0882 7.37996 9.66425 7.55556 9.22222 7.55556ZM5.88889 12C5.44686 12 5.02294 11.8244 4.71038 11.5118C4.39782 11.1993 4.22222 10.7754 4.22222 10.3333C4.22222 9.89131 4.39782 9.46738 4.71038 9.15482C5.02294 8.84226 5.44686 8.66667 5.88889 8.66667C6.33092 8.66667 6.75484 8.84226 7.0674 9.15482C7.37996 9.46738 7.55556 9.89131 7.55556 10.3333C7.55556 10.7754 7.37996 11.1993 7.0674 11.5118C6.75484 11.8244 6.33092 12 5.88889 12ZM12 2C9.34784 2 6.8043 3.05357 4.92893 4.92893C3.05357 6.8043 2 9.34784 2 12C2 14.6522 3.05357 17.1957 4.92893 19.0711C6.8043 20.9464 9.34784 22 12 22C12.442 22 12.866 21.8244 13.1785 21.5118C13.4911 21.1993 13.6667 20.7754 13.6667 20.3333C13.6667 19.9 13.5 19.5111 13.2333 19.2222C12.9778 18.9222 12.8111 18.5333 12.8111 18.1111C12.8111 17.6691 12.9867 17.2452 13.2993 16.9326C13.6118 16.62 14.0358 16.4444 14.4778 16.4444H16.4444C17.9179 16.4444 19.3309 15.8591 20.3728 14.8173C21.4147 13.7754 22 12.3623 22 10.8889C22 5.97778 17.5222 2 12 2Z" fill="url(#paint0_linear_332_8989)"/>
<defs>
<linearGradient id="paint0_linear_332_8989" x1="5" y1="2" x2="21" y2="21" gradientUnits="userSpaceOnUse">
<stop stop-color="#FF958B"/>
<stop offset="1" stop-color="#E346FF"/>
</linearGradient>
</defs>
</svg>
