<svg width="122" height="32" viewBox="0 0 122 32" fill="none" xmlns="http://www.w3.org/2000/svg">
<path fill-rule="evenodd" clip-rule="evenodd" d="M70.1123 7.75195C73.9618 7.75195 76.3005 9.34052 76.9121 12.4111H77.2354V8.10547H80.7617V23.8115C80.7617 29.5646 77.3437 32 71.6953 32C66.227 32 62.7374 29.9529 62.7373 25.5059H66.5869C66.587 27.8352 67.7021 28.5762 71.9111 28.5762C76.0125 28.5762 76.9121 27.5175 76.9121 23.8115V19.5762H76.624C75.9764 22.0114 73.8901 24.1639 70.0049 24.1641C64.5364 24.1641 61.5859 20.9169 61.5859 15.9756C61.5861 11.1757 64.5721 7.752 70.1123 7.75195ZM71.4795 10.999C67.2704 10.999 65.4718 12.4817 65.4717 15.9756C65.4717 19.611 67.2347 20.917 71.3721 20.917C75.0414 20.9169 76.9121 19.3991 76.9121 16.4697V15.3057C76.9121 12.4821 75.0412 10.999 71.4795 10.999Z" fill="#111111"/>
<path d="M0 15C1.83843 15 3.65893 15.3619 5.35742 16.0654C7.05598 16.769 8.59939 17.8006 9.89941 19.1006C11.1994 20.4006 12.231 21.944 12.9346 23.6426C13.6381 25.3411 14 27.1616 14 29H7.00488C7.00488 28.0801 6.82371 27.1692 6.47168 26.3193C6.11965 25.4695 5.60359 24.6973 4.95312 24.0469C4.30266 23.3964 3.53054 22.8803 2.68066 22.5283C1.83079 22.1763 0.919896 21.9951 0 21.9951V15Z" fill="#111111"/>
<path d="M29 21.9951C28.0801 21.9951 27.1692 22.1763 26.3193 22.5283C25.4695 22.8803 24.6973 23.3964 24.0469 24.0469C23.3964 24.6973 22.8803 25.4695 22.5283 26.3193C22.1763 27.1692 21.9951 28.0801 21.9951 29H15C15 27.1616 15.3619 25.3411 16.0654 23.6426C16.769 21.944 17.8006 20.4006 19.1006 19.1006C20.4006 17.8006 21.944 16.769 23.6426 16.0654C25.3411 15.3619 27.1616 15 29 15V21.9951Z" fill="#111111"/>
<path fill-rule="evenodd" clip-rule="evenodd" d="M92.5 7.75195C97.8604 7.75201 101.458 10.7524 101.458 16.1172C101.458 16.7171 101.386 17.3876 101.314 17.917H86.4922C86.6001 21.0228 87.8947 22.5761 92.3555 22.5762C96.0971 22.5762 97.3926 21.729 97.3926 19.6113V19.541H101.242V19.6816C101.242 23.3876 97.8245 26 92.5 26C86.1681 26 82.7861 22.7527 82.7861 16.8584C82.7861 11.423 86.4559 7.75195 92.5 7.75195ZM92.3555 10.999C88.2906 10.9991 86.7433 12.5171 86.5273 15.4463H97.7529C97.7528 12.3053 96.0969 10.999 92.3555 10.999Z" fill="#111111"/>
<path d="M39.8857 15.0596H44.3105L50.1025 8.10645H54.8154L47.5127 16.5059L54.7803 25.6475H50.0674L44.3467 18.4824H39.8857V25.6475H36V2H39.8857V15.0596Z" fill="#111111"/>
<path d="M59.5752 25.6475H55.6895V8.10645H59.5752V25.6475Z" fill="#111111"/>
<path d="M114.984 7.75195C119.769 7.75196 122 10.964 122 14.917V25.6465H118.15V15.5527C118.15 12.4469 116.567 10.9991 113.042 10.999C109.372 10.999 107.609 12.6583 107.609 16.1172V25.6465H103.724V8.10547H107.285V12.6934H107.573C108.257 10.5404 110.487 7.75195 114.984 7.75195Z" fill="#111111"/>
<path d="M14 0C14 1.83843 13.6381 3.65892 12.9346 5.35742C12.231 7.05598 11.1994 8.59939 9.89941 9.89941C8.59939 11.1994 7.05598 12.231 5.35742 12.9346C3.65893 13.6381 1.83843 14 0 14V7.00488C0.919896 7.00488 1.83079 6.82371 2.68066 6.47168C3.53054 6.11965 4.30266 5.60359 4.95312 4.95312C5.60359 4.30266 6.11965 3.53054 6.47168 2.68066C6.82371 1.83079 7.00488 0.919896 7.00488 0H14Z" fill="#111111"/>
<path d="M21.9951 0C21.9951 0.919896 22.1763 1.83079 22.5283 2.68066C22.8803 3.53054 23.3964 4.30266 24.0469 4.95312C24.6973 5.60359 25.4695 6.11965 26.3193 6.47168C27.1692 6.82371 28.0801 7.00488 29 7.00488V14C27.1616 14 25.3411 13.6381 23.6426 12.9346C21.944 12.231 20.4006 11.1994 19.1006 9.89941C17.8006 8.59939 16.769 7.05598 16.0654 5.35742C15.3619 3.65892 15 1.83843 15 0H21.9951Z" fill="#111111"/>
<path d="M59.5752 5.88281H55.6895V2H59.5752V5.88281Z" fill="#111111"/>
</svg>
