<svg width="29" height="29" viewBox="0 0 29 29" fill="none" xmlns="http://www.w3.org/2000/svg">
<path d="M3.05765e-07 15C1.83851 15 3.65901 15.3621 5.35757 16.0657C7.05613 16.7693 8.59947 17.8005 9.8995 19.1005C11.1995 20.4005 12.2307 21.9439 12.9343 23.6424C13.6379 25.341 14 27.1615 14 29L7.0049 29C7.0049 28.0801 6.82371 27.1692 6.47168 26.3193C6.11965 25.4695 5.60368 24.6973 4.95321 24.0468C4.30275 23.3963 3.53053 22.8803 2.68066 22.5283C1.83078 22.1763 0.919896 21.9951 0 21.9951L3.05765e-07 15Z" fill="white"/>
<path d="M29 14C27.1615 14 25.341 13.6379 23.6424 12.9343C21.9439 12.2307 20.4005 11.1995 19.1005 9.8995C17.8005 8.59947 16.7693 7.05613 16.0657 5.35757C15.3621 3.65901 15 1.83851 15 0L21.9951 1.25944e-06C21.9951 0.919898 22.1763 1.83079 22.5283 2.68066C22.8803 3.53053 23.3963 4.30275 24.0468 4.95321C24.6973 5.60368 25.4695 6.11965 26.3193 6.47168C27.1692 6.82371 28.0801 7.0049 29 7.0049V14Z" fill="white"/>
<path d="M3.05765e-07 14C1.83851 14 3.65901 13.6379 5.35757 12.9343C7.05613 12.2307 8.59947 11.1995 9.8995 9.8995C11.1995 8.59947 12.2307 7.05613 12.9343 5.35757C13.6379 3.65901 14 1.83851 14 0L7.0049 1.25944e-06C7.0049 0.919898 6.82371 1.83079 6.47168 2.68066C6.11965 3.53053 5.60368 4.30275 4.95321 4.95321C4.30275 5.60368 3.53053 6.11965 2.68066 6.47168C1.83078 6.82371 0.919896 7.0049 0 7.0049L3.05765e-07 14Z" fill="white"/>
<path d="M29 15C27.1615 15 25.341 15.3621 23.6424 16.0657C21.9439 16.7693 20.4005 17.8005 19.1005 19.1005C17.8005 20.4005 16.7693 21.9439 16.0657 23.6424C15.3621 25.341 15 27.1615 15 29L21.9951 29C21.9951 28.0801 22.1763 27.1692 22.5283 26.3193C22.8803 25.4695 23.3963 24.6973 24.0468 24.0468C24.6973 23.3963 25.4695 22.8803 26.3193 22.5283C27.1692 22.1763 28.0801 21.9951 29 21.9951V15Z" fill="white"/>
</svg>
