<svg width="24" height="24" viewBox="0 0 24 24" fill="none" xmlns="http://www.w3.org/2000/svg">
<path d="M2 16.4444C2 19.5556 4.44444 22 7.55556 22H9.77778V19.7778H7.55556C5.66667 19.7778 4.22222 18.3333 4.22222 16.4444V14.2222H2V16.4444ZM22 7.55556C22 4.44444 19.5556 2 16.4444 2H14.2222V4.22222H16.4444C18.3333 4.22222 19.7778 5.66667 19.7778 7.55556V9.77778H22V7.55556ZM16.4444 22C19.5556 22 22 19.5556 22 16.4444V14.2222H19.7778V16.4444C19.7778 18.3333 18.3333 19.7778 16.4444 19.7778H14.2222V22H16.4444ZM7.55556 2C4.44444 2 2 4.44444 2 7.55556V9.77778H4.22222V7.55556C4.22222 5.66667 5.66667 4.22222 7.55556 4.22222H9.77778V2H7.55556Z" fill="url(#paint0_linear_332_9001)"/>
<defs>
<linearGradient id="paint0_linear_332_9001" x1="5" y1="2" x2="21" y2="21" gradientUnits="userSpaceOnUse">
<stop stop-color="#8BA0FF"/>
<stop offset="1" stop-color="#31DCD1"/>
</linearGradient>
</defs>
</svg>
